<?xml version="1.0" encoding="utf-8"?>
<!-- Generator: Adobe Illustrator 24.1.2, SVG Export Plug-In . SVG Version: 6.00 Build 0)  -->
<svg version="1.1"
	 id="Шар_1" xmlns:cc="http://creativecommons.org/ns#" xmlns:dc="http://purl.org/dc/elements/1.1/" xmlns:inkscape="http://www.inkscape.org/namespaces/inkscape" xmlns:rdf="http://www.w3.org/1999/02/22-rdf-syntax-ns#" xmlns:sodipodi="http://sodipodi.sourceforge.net/DTD/sodipodi-0.dtd" xmlns:svg="http://www.w3.org/2000/svg"
	 xmlns="http://www.w3.org/2000/svg" xmlns:xlink="http://www.w3.org/1999/xlink" x="0px" y="0px" viewBox="0 0 143.5 133.5"
	 style="enable-background:new 0 0 143.5 133.5;" xml:space="preserve">
<style type="text/css">
	.st0{fill:#FFA22A;}
	.st1{fill:#FFFFFF;}
</style>
<circle class="st0" cx="72.4" cy="67.3" r="63.8"/>
<g transform="translate(0,-952.36218)">
	<path class="st1" d="M40.1,986.7l-1,3c-0.3,1,0.2,2.2,1.2,2.5l26.5,9.7l-3.8,5.4c-4.1-0.3-8.4,0.5-11.7,1.4c-6.8,2-13.4,4-19.4,7.3
		c-1.2,0.7-2.3,1.4-3.2,2.2c-0.9,0.8-1.7,1.7-1.7,3.2c0,0.5,0.2,1,0.5,1.3c-0.5,1.5-0.6,3.1-0.3,4.7c0.5,2.6,1.9,5.2,3.6,7.5
		c3.5,4.6,8.7,8.5,13.9,8.5h56.3c2.3,0,4.4-1.1,6.6-2.7c2.2-1.5,4.3-3.6,6-5.9c1.7-2.3,3-4.9,3.4-7.5c0.2-1.5,0.1-3.1-0.5-4.5
		c0.4-0.4,0.6-0.9,0.6-1.4c0-1.7-0.7-3.1-1.6-4.6c-2.1-3.1-4.7-5.9-7.8-7.8c-2.1-1.1-3.5-1.6-5.6-1.6v-11.1c0-1.7-0.3-3.3-1.4-4.5
		c-1.2-1.2-2.8-1.4-4.5-1.4c-6.7,0-13.5,0-20.3,0c-0.6,0.1-1.1,0.4-1.4,0.8l-3.1,4.4l-28.6-10.2C41.5,985.1,40.6,985.9,40.1,986.7z
		 M31.7,1023.4H112c0.8,0.9,1.1,1.9,0.9,3.3c-0.3,1.7-1.3,3.8-2.7,5.7c-1.4,1.9-3.3,3.8-5.1,5c-1.8,1.3-3.5,1.9-4.3,1.9H44.7
		c-2.9,0-7.7-3.1-10.7-7c-1.5-1.9-2.5-4-2.8-5.7C30.8,1025.2,31.1,1024.2,31.7,1023.4L31.7,1023.4z M45,1025.4c-3.3,0-6,2.7-6,6
		c0,3.3,2.7,6,6,6c3.3,0,6-2.7,6-6S48.3,1025.4,45,1025.4z M63,1025.4c-3.3,0-6,2.7-6,6c0,3.3,2.7,6,6,6c3.3,0,6-2.7,6-6
		S66.3,1025.4,63,1025.4z M81,1025.4c-3.3,0-6,2.7-6,6c0,3.3,2.7,6,6,6c3.3,0,6-2.7,6-6S84.3,1025.4,81,1025.4z M99,1025.4
		c-3.3,0-6,2.7-6,6c0,3.3,2.7,6,6,6c3.3,0,6-2.7,6-6S102.3,1025.4,99,1025.4z M45,1029.4c1.1,0,2,0.9,2,2s-0.9,2-2,2
		c-1.1,0-2-0.9-2-2S43.8,1029.4,45,1029.4z M63,1029.4c1.1,0,2,0.9,2,2s-0.9,2-2,2c-1.1,0-2-0.9-2-2S61.8,1029.4,63,1029.4z
		 M81,1029.4c1.1,0,2,0.9,2,2c0,1.1-0.9,2-2,2c-1.1,0-2-0.9-2-2C79,1030.2,79.8,1029.4,81,1029.4z M99,1029.4c1.1,0,2,0.9,2,2
		c0,1.1-0.9,2-2,2c-1.1,0-2-0.9-2-2C97,1030.2,97.8,1029.4,99,1029.4z"/>
</g>
</svg>
